<?xml version="1.0" ?><svg viewBox="0 0 447.48 213.46" xmlns="http://www.w3.org/2000/svg">
  <title />
  <g data-name="Layer 2" id="Layer_2">
    <g data-name="opera, house, sydney, house, australia, architecture, landmark, travel, building, tourism"
      id="opera_house_sydney_house_australia_architecture_landmark_travel_building_tourism">
      <path
        d="M177.6,21a5.47,5.47,0,1,0-5.6,9.39c.92.55,1.84,1.12,2.76,1.7a5.47,5.47,0,0,0,5.85-9.24C179.61,22.24,178.6,21.62,177.6,21Z" />
      <path
        d="M430.88,160.72H403.75L445.48,75a5.46,5.46,0,0,0-4.89-7.86C405.22,67,383.17,80,370.85,90.84A5.47,5.47,0,1,0,378.09,99c9.85-8.7,26.88-18.9,53.61-20.68l-40.11,82.37H336.66c-5.4-9.76-24-40.88-52.69-62.74,16.4-2.22,46.1-2.67,68.57,17L340.3,139.2a5.47,5.47,0,0,0,9.76,4.93l9.84-19.46,16.23,24.69a5.46,5.46,0,1,0,9.13-6l-21.41-32.58,0,0-.06-.08a6,6,0,0,0-.59-.72s0,0-.06-.07l-.13-.12-.13-.12C325.78,73.43,271,89.21,268.66,89.9a5.46,5.46,0,0,0-1.31,9.89c28,17.26,48.12,46.82,56.64,60.93H282.78l6.61-24.48a5.46,5.46,0,0,0-10.55-2.85l-4.72,17.45L226.93,76.16c5.74-8.15,26.89-32.06,74.66-27L296.7,67.26a5.46,5.46,0,1,0,10.55,2.85L313.78,46a5.47,5.47,0,0,0-4.46-6.83c-51.17-7.72-77.52,14.11-88,26.54a116.68,116.68,0,0,0-21.75-28.11A5.47,5.47,0,1,0,192,45.48a106.25,106.25,0,0,1,22.14,30.16l-38.3,54.47a5.46,5.46,0,0,0,1.33,7.61,5.37,5.37,0,0,0,3.14,1,5.45,5.45,0,0,0,4.47-2.32l30.22-43v67.3H195.71L165.54,146.3c-1.75-32.13-10.37-88.79-46.75-134.16a155.22,155.22,0,0,1,30.37,7.53,5.47,5.47,0,1,0,3.72-10.28C127.64.27,106.68,0,105.8,0h0a5.46,5.46,0,0,0-4,9.21c39.38,41.82,49.91,98,52.47,132a118,118,0,0,0-43.78-8.5h-9.23c-.37-22.44-5.56-52.13-26.12-76.41a149.67,149.67,0,0,1,36.68,3.29,5.47,5.47,0,1,0,2.33-10.68c-28.47-6.21-50.79-2.67-51.73-2.51a5.46,5.46,0,0,0-2.84,9.38c24.49,22.88,30.34,54,30.74,76.93H61.43c-2.84-14.9-10.84-32.9-31.73-44.2a73.4,73.4,0,0,1,26.42-7.19,5.46,5.46,0,1,0-.76-10.9A83.7,83.7,0,0,0,14.47,84.7a5.47,5.47,0,0,0,1.39,9.51c18.71,6.88,30.25,19.81,34.4,38.47H5.47a5.47,5.47,0,1,0,0,10.93h105A107,107,0,0,1,156.26,154l14.1,6.74H137.83a5.47,5.47,0,1,0,0,10.93h293a5.68,5.68,0,0,1,5.67,5.67v25.21H10.93V166.19a5.47,5.47,0,1,0-10.93,0V208a5.47,5.47,0,0,0,5.47,5.46H442a5.47,5.47,0,0,0,5.47-5.46V177.32A16.62,16.62,0,0,0,430.88,160.72ZM225.92,95l41.52,65.69H225.92Z" />
      <path d="M111.81,171.65a5.47,5.47,0,1,0,0-10.93H95.08a5.47,5.47,0,0,0,0,10.93Z" />
      <path d="M66.41,171.65a5.47,5.47,0,0,0,0-10.93H64.68a5.47,5.47,0,0,0,0,10.93Z" />
    </g>
  </g>
</svg>